<?xml version="1.0" encoding="utf-8"?>
<svg xmlns="http://www.w3.org/2000/svg" xmlns:xlink="http://www.w3.org/1999/xlink" style="margin: auto; background: none; display: block; shape-rendering: auto;" width="207px" height="207px" viewBox="0 0 100 100" preserveAspectRatio="xMidYMid">
<g transform="rotate(0 50 50)">
  <rect x="47" y="24" rx="3" ry="6" width="6" height="12" fill="#f9ae5c">
    <animate attributeName="opacity" values="1;0" keyTimes="0;1" dur="2.380952380952381s" begin="-2.1825396825396823s" repeatCount="indefinite"></animate>
  </rect>
</g><g transform="rotate(30 50 50)">
  <rect x="47" y="24" rx="3" ry="6" width="6" height="12" fill="#f9ae5c">
    <animate attributeName="opacity" values="1;0" keyTimes="0;1" dur="2.380952380952381s" begin="-1.9841269841269837s" repeatCount="indefinite"></animate>
  </rect>
</g><g transform="rotate(60 50 50)">
  <rect x="47" y="24" rx="3" ry="6" width="6" height="12" fill="#f9ae5c">
    <animate attributeName="opacity" values="1;0" keyTimes="0;1" dur="2.380952380952381s" begin="-1.7857142857142854s" repeatCount="indefinite"></animate>
  </rect>
</g><g transform="rotate(90 50 50)">
  <rect x="47" y="24" rx="3" ry="6" width="6" height="12" fill="#f9ae5c">
    <animate attributeName="opacity" values="1;0" keyTimes="0;1" dur="2.380952380952381s" begin="-1.587301587301587s" repeatCount="indefinite"></animate>
  </rect>
</g><g transform="rotate(120 50 50)">
  <rect x="47" y="24" rx="3" ry="6" width="6" height="12" fill="#f9ae5c">
    <animate attributeName="opacity" values="1;0" keyTimes="0;1" dur="2.380952380952381s" begin="-1.3888888888888886s" repeatCount="indefinite"></animate>
  </rect>
</g><g transform="rotate(150 50 50)">
  <rect x="47" y="24" rx="3" ry="6" width="6" height="12" fill="#f9ae5c">
    <animate attributeName="opacity" values="1;0" keyTimes="0;1" dur="2.380952380952381s" begin="-1.1904761904761902s" repeatCount="indefinite"></animate>
  </rect>
</g><g transform="rotate(180 50 50)">
  <rect x="47" y="24" rx="3" ry="6" width="6" height="12" fill="#f9ae5c">
    <animate attributeName="opacity" values="1;0" keyTimes="0;1" dur="2.380952380952381s" begin="-0.9920634920634919s" repeatCount="indefinite"></animate>
  </rect>
</g><g transform="rotate(210 50 50)">
  <rect x="47" y="24" rx="3" ry="6" width="6" height="12" fill="#f9ae5c">
    <animate attributeName="opacity" values="1;0" keyTimes="0;1" dur="2.380952380952381s" begin="-0.7936507936507935s" repeatCount="indefinite"></animate>
  </rect>
</g><g transform="rotate(240 50 50)">
  <rect x="47" y="24" rx="3" ry="6" width="6" height="12" fill="#f9ae5c">
    <animate attributeName="opacity" values="1;0" keyTimes="0;1" dur="2.380952380952381s" begin="-0.5952380952380951s" repeatCount="indefinite"></animate>
  </rect>
</g><g transform="rotate(270 50 50)">
  <rect x="47" y="24" rx="3" ry="6" width="6" height="12" fill="#f9ae5c">
    <animate attributeName="opacity" values="1;0" keyTimes="0;1" dur="2.380952380952381s" begin="-0.39682539682539675s" repeatCount="indefinite"></animate>
  </rect>
</g><g transform="rotate(300 50 50)">
  <rect x="47" y="24" rx="3" ry="6" width="6" height="12" fill="#f9ae5c">
    <animate attributeName="opacity" values="1;0" keyTimes="0;1" dur="2.380952380952381s" begin="-0.19841269841269837s" repeatCount="indefinite"></animate>
  </rect>
</g><g transform="rotate(330 50 50)">
  <rect x="47" y="24" rx="3" ry="6" width="6" height="12" fill="#f9ae5c">
    <animate attributeName="opacity" values="1;0" keyTimes="0;1" dur="2.380952380952381s" begin="0s" repeatCount="indefinite"></animate>
  </rect>
</g>
<!-- [ldio] generated by https://loading.io/ --></svg>